<svg width="128" height="128" viewBox="0 0 128 128" fill="none" xmlns="http://www.w3.org/2000/svg">
<g clip-path="url(#clip0_21_17)">
<g filter="url(#filter0_i_21_17)">
<circle cx="64" cy="64" r="56" fill="#707070"/>
</g>
<g filter="url(#filter1_d_21_17)">
<mask id="path-2-outside-1_21_17" maskUnits="userSpaceOnUse" x="-9.60147" y="5.22553" width="146.415" height="118.13" fill="black">
<rect fill="white" x="-9.60147" y="5.22553" width="146.415" height="118.13"/>
<path d="M67.558 79.6421C68.4154 81.6265 68.9985 82.8996 70.012 84.9857C69.0307 86.218 68.9914 86.2709 68.0334 87.6965C67.0754 89.1221 66.0821 90.6285 65.0533 92.2156C64.044 93.769 62.915 95.3545 61.6664 96.972C60.4371 98.5558 59.0474 100.126 57.497 101.681C55.9538 103.264 54.1719 104.753 52.1513 106.15C50.1644 107.566 47.8918 108.874 45.3335 110.073C42.8017 111.264 39.9132 112.295 36.6679 113.164C33.0769 114.126 29.6356 114.265 26.3441 113.578C23.0864 112.912 20.1055 111.629 17.4015 109.731C14.6904 107.806 12.3415 105.37 10.3547 102.424C8.3874 99.4448 6.92263 96.1594 5.9604 92.5684C5.30467 90.1211 4.8686 87.4297 4.65222 84.4941C4.4287 81.5319 4.4206 78.4692 4.62792 75.306C4.8547 72.1091 5.29785 68.8685 5.95737 65.5842C6.61689 62.2998 7.49469 59.0853 8.59077 55.9406C9.71344 52.7887 11.0625 49.79 12.6379 46.9445C14.2061 44.0724 16.0027 41.467 18.0275 39.1283C20.0452 36.763 22.2956 34.7345 24.7789 33.0427C27.2622 31.351 29.9801 30.1095 32.9328 29.3184C34.848 28.8052 36.8825 28.6307 39.0363 28.7948C41.1829 28.9324 43.2298 29.4958 45.177 30.4851C47.1242 31.4744 48.8785 32.9145 50.4401 34.8055C52.0283 36.6893 53.2143 39.0942 53.9984 42.0202C54.5258 43.9887 54.7412 46.0692 54.6445 48.2619C54.5672 50.4209 54.2328 52.5775 53.6411 54.7318C53.0423 56.8595 52.2154 58.9342 51.1606 60.956C50.1323 62.9706 48.9274 64.8045 47.5457 66.4577C46.1569 68.0843 44.6374 69.4893 42.9873 70.6727C41.3372 71.8561 39.5944 72.6937 37.7589 73.1855C35.3383 73.8342 33.4439 73.9996 32.0758 73.682C30.7006 73.3377 29.8491 72.5537 29.5212 71.3301C29.4642 71.1173 29.3832 70.8682 29.2782 70.5827C29.1998 70.2901 29.1178 69.9842 29.0323 69.665C28.904 69.1862 28.7987 68.6869 28.7165 68.1673C28.6272 67.621 28.6053 67.1137 28.6508 66.6453C28.6964 66.1769 28.8298 65.7705 29.0512 65.4261C29.2991 65.0746 29.6891 64.8276 30.2211 64.685C30.5403 64.5995 30.8338 64.5778 31.1018 64.6201C31.3625 64.6357 31.6535 64.6576 31.9746 64.6856C32.2957 64.7136 32.67 64.7273 33.0976 64.7268C33.5445 64.6926 34.0873 64.5899 34.7257 64.4188C36.4281 63.9627 38.044 63.1305 39.5735 61.9224C41.1296 60.7072 42.4175 59.236 43.4372 57.5087C44.4835 55.7743 45.1961 53.8585 45.575 51.7612C45.9733 49.6303 45.8696 47.4343 45.2638 45.1732C44.943 43.9762 44.4805 42.8884 43.8762 41.91C43.2647 40.9049 42.493 40.0995 41.561 39.494C40.6218 38.8618 39.5161 38.4595 38.244 38.2872C36.9914 38.0812 35.5537 38.1955 33.9311 38.6303C32.0159 39.1435 30.2546 40.0716 28.6472 41.4146C27.0594 42.7239 25.6199 44.3213 24.329 46.2068C23.0381 48.0922 21.8982 50.2223 20.9094 52.597C19.9472 54.9646 19.1306 57.45 18.4597 60.0531C17.7816 62.6297 17.2517 65.2806 16.87 68.0058C16.5078 70.6973 16.2919 73.3496 16.2223 75.9627C16.1527 78.5758 16.2248 81.0796 16.4388 83.4742C16.6722 85.835 17.0455 87.973 17.5587 89.8883C18.2929 92.6281 19.2669 94.9331 20.4807 96.8031C21.714 98.6394 23.1375 100.068 24.7513 101.09C26.365 102.112 28.1654 102.713 30.1524 102.893C32.1394 103.073 34.2634 102.861 36.5245 102.255C39.3441 101.499 41.8716 100.451 44.107 99.1111C46.3618 97.7372 48.4398 96.1825 50.3412 94.4471C52.2426 92.7117 54.0249 90.8513 55.6883 88.8661C57.3782 86.8737 59.0549 84.8849 60.7182 82.8996C62.401 80.8807 65.4377 77.4679 65.9106 77.0607C66.3835 76.6535 66.3536 76.5706 66.3536 76.5706L67.558 79.6421Z"/>
<path d="M86.2678 13.7015C90.7367 12.5041 94.8109 12.0682 98.4905 12.3937C102.189 12.6855 105.427 13.5429 108.203 14.9658C110.972 16.3621 113.265 18.214 115.08 20.5215C116.923 22.8219 118.218 25.3686 118.966 28.1617C119.665 30.7685 119.851 33.4842 119.524 36.3087C119.198 39.1332 118.299 41.8971 116.828 44.6006C115.384 47.297 113.316 49.8468 110.624 52.2502C107.959 54.6464 104.624 56.7232 100.618 58.4807C101.059 60.4439 101.47 62.2439 101.852 63.8808C102.01 64.5796 102.169 65.2783 102.328 65.977C102.486 66.6758 102.631 67.3213 102.761 67.9137C102.911 68.4723 103.029 68.9679 103.117 69.4007C103.231 69.8263 103.309 70.1189 103.352 70.2785C103.798 72.1548 104.092 74.1572 104.235 76.2858C104.397 78.3806 104.362 80.4854 104.13 82.6002C103.925 84.7079 103.519 86.7555 102.911 88.743C102.337 90.75 101.516 92.5808 100.448 94.2354C99.4144 95.9095 98.1327 97.3506 96.6033 98.5587C95.0809 99.7934 93.2956 100.685 91.2474 101.234C89.0662 101.818 86.9578 101.77 84.9223 101.09C82.9205 100.429 81.0113 99.3153 79.1947 97.7493C77.4047 96.1762 75.7224 94.2606 74.148 92.0025C72.6002 89.7372 71.1835 87.3228 69.8979 84.7593C68.6051 82.1691 67.4551 79.5264 66.4478 76.8312C65.4672 74.1289 64.649 71.5542 63.9932 69.1069C62.8671 64.904 62.1658 60.7441 61.8895 56.6271C61.6131 52.5102 61.737 48.5568 62.2611 44.767C62.7781 40.9507 63.6829 37.3583 64.9756 33.9898C66.2684 30.6213 67.9207 27.5841 69.9326 24.8783C71.9712 22.1652 74.3473 19.8607 77.0609 17.9647C79.794 16.0349 82.863 14.6139 86.2678 13.7015ZM74.4087 65.2042C74.7009 66.2948 75.0965 67.7712 75.5954 69.6332C76.1138 71.4615 76.721 73.4086 77.4171 75.4744C78.1132 77.5402 78.8962 79.6112 79.7662 81.6874C80.6361 83.7636 81.5856 85.6047 82.6146 87.2107C83.6631 88.7829 84.7627 90.0136 85.9132 90.9027C87.0833 91.7582 88.32 92.0112 89.6234 91.662C90.9801 91.2985 92.0124 90.5229 92.7206 89.3353C93.4216 88.1211 93.8918 86.6836 94.131 85.023C94.3632 83.3357 94.4124 81.4978 94.2788 79.5094C94.138 77.4944 93.9041 75.5043 93.5771 73.5392C93.2501 71.574 92.8816 69.7198 92.4715 67.9765C92.0543 66.2066 91.6818 64.7099 91.3539 63.4863L90.8514 61.6109C88.4083 61.3247 86.4593 61.0201 85.0043 60.6973C83.5759 60.3672 82.4605 59.9819 81.6582 59.5411C80.8558 59.1004 80.2724 58.5724 79.908 57.9573C79.5631 57.3085 79.2695 56.5318 79.0272 55.6274C78.8989 55.1486 78.7874 54.6795 78.6929 54.2202C78.5912 53.7343 78.5472 53.3041 78.5609 52.9298C78.5941 52.5218 78.6886 52.1828 78.8444 51.913C79.0197 51.6095 79.3068 51.4042 79.7058 51.2973C79.9718 51.226 80.2255 51.2151 80.4668 51.2645C80.7347 51.3067 81.0665 51.3746 81.4622 51.4682C82.4683 51.7118 83.3733 51.8969 84.177 52.0237C84.9736 52.1239 85.6496 52.1993 86.2049 52.2501C86.8471 52.3061 87.4219 52.3232 87.9292 52.3013C87.8366 51.9555 87.6548 51.2771 87.384 50.2663C87.1326 49.2218 86.8988 48.03 86.6825 46.6909C86.4857 45.3181 86.3678 43.8672 86.3287 42.3381C86.2897 40.809 86.4422 39.3569 86.7865 37.9817C87.1308 36.6064 87.7316 35.3906 88.5889 34.3341C89.4391 33.2509 90.6489 32.4991 92.2183 32.0786C92.6971 31.9503 93.2035 31.8716 93.7374 31.8426C94.2642 31.787 94.7628 31.8387 95.233 31.9978C95.7228 32.1232 96.1577 32.363 96.5377 32.7174C96.9444 33.0646 97.2368 33.5707 97.415 34.2357C97.4649 34.4219 97.4872 34.5585 97.482 34.6454C97.4963 34.6986 97.5177 34.7784 97.5462 34.8848L97.8599 45.7915L98.3454 49.0398C100.845 47.9423 102.922 46.7016 104.575 45.3178C106.229 43.9339 107.507 42.4795 108.41 40.9546C109.339 39.4226 109.904 37.86 110.105 36.2667C110.332 34.6664 110.242 33.1081 109.836 31.5918C109.436 30.1022 108.738 28.6644 107.739 27.2784C106.76 25.8586 105.394 24.6992 103.642 23.8002C101.89 22.9011 99.7202 22.3564 97.1318 22.1662C94.5434 21.9759 91.4537 22.3619 87.8626 23.3241C85.176 24.044 82.881 25.2149 80.9777 26.8368C79.0673 28.432 77.4961 30.3356 76.2641 32.5474C75.0321 34.7592 74.1046 37.203 73.4816 39.8788C72.8586 42.5547 72.4912 45.3331 72.3793 48.2141C72.2869 51.0614 72.419 53.9483 72.7755 56.8749C73.1515 59.7677 73.6959 62.5442 74.4087 65.2042Z"/>
</mask>
<path d="M67.558 79.6421C68.4154 81.6265 68.9985 82.8996 70.012 84.9857C69.0307 86.218 68.9914 86.2709 68.0334 87.6965C67.0754 89.1221 66.0821 90.6285 65.0533 92.2156C64.044 93.769 62.915 95.3545 61.6664 96.972C60.4371 98.5558 59.0474 100.126 57.497 101.681C55.9538 103.264 54.1719 104.753 52.1513 106.15C50.1644 107.566 47.8918 108.874 45.3335 110.073C42.8017 111.264 39.9132 112.295 36.6679 113.164C33.0769 114.126 29.6356 114.265 26.3441 113.578C23.0864 112.912 20.1055 111.629 17.4015 109.731C14.6904 107.806 12.3415 105.37 10.3547 102.424C8.3874 99.4448 6.92263 96.1594 5.9604 92.5684C5.30467 90.1211 4.8686 87.4297 4.65222 84.4941C4.4287 81.5319 4.4206 78.4692 4.62792 75.306C4.8547 72.1091 5.29785 68.8685 5.95737 65.5842C6.61689 62.2998 7.49469 59.0853 8.59077 55.9406C9.71344 52.7887 11.0625 49.79 12.6379 46.9445C14.2061 44.0724 16.0027 41.467 18.0275 39.1283C20.0452 36.763 22.2956 34.7345 24.7789 33.0427C27.2622 31.351 29.9801 30.1095 32.9328 29.3184C34.848 28.8052 36.8825 28.6307 39.0363 28.7948C41.1829 28.9324 43.2298 29.4958 45.177 30.4851C47.1242 31.4744 48.8785 32.9145 50.4401 34.8055C52.0283 36.6893 53.2143 39.0942 53.9984 42.0202C54.5258 43.9887 54.7412 46.0692 54.6445 48.2619C54.5672 50.4209 54.2328 52.5775 53.6411 54.7318C53.0423 56.8595 52.2154 58.9342 51.1606 60.956C50.1323 62.9706 48.9274 64.8045 47.5457 66.4577C46.1569 68.0843 44.6374 69.4893 42.9873 70.6727C41.3372 71.8561 39.5944 72.6937 37.7589 73.1855C35.3383 73.8342 33.4439 73.9996 32.0758 73.682C30.7006 73.3377 29.8491 72.5537 29.5212 71.3301C29.4642 71.1173 29.3832 70.8682 29.2782 70.5827C29.1998 70.2901 29.1178 69.9842 29.0323 69.665C28.904 69.1862 28.7987 68.6869 28.7165 68.1673C28.6272 67.621 28.6053 67.1137 28.6508 66.6453C28.6964 66.1769 28.8298 65.7705 29.0512 65.4261C29.2991 65.0746 29.6891 64.8276 30.2211 64.685C30.5403 64.5995 30.8338 64.5778 31.1018 64.6201C31.3625 64.6357 31.6535 64.6576 31.9746 64.6856C32.2957 64.7136 32.67 64.7273 33.0976 64.7268C33.5445 64.6926 34.0873 64.5899 34.7257 64.4188C36.4281 63.9627 38.044 63.1305 39.5735 61.9224C41.1296 60.7072 42.4175 59.236 43.4372 57.5087C44.4835 55.7743 45.1961 53.8585 45.575 51.7612C45.9733 49.6303 45.8696 47.4343 45.2638 45.1732C44.943 43.9762 44.4805 42.8884 43.8762 41.91C43.2647 40.9049 42.493 40.0995 41.561 39.494C40.6218 38.8618 39.5161 38.4595 38.244 38.2872C36.9914 38.0812 35.5537 38.1955 33.9311 38.6303C32.0159 39.1435 30.2546 40.0716 28.6472 41.4146C27.0594 42.7239 25.6199 44.3213 24.329 46.2068C23.0381 48.0922 21.8982 50.2223 20.9094 52.597C19.9472 54.9646 19.1306 57.45 18.4597 60.0531C17.7816 62.6297 17.2517 65.2806 16.87 68.0058C16.5078 70.6973 16.2919 73.3496 16.2223 75.9627C16.1527 78.5758 16.2248 81.0796 16.4388 83.4742C16.6722 85.835 17.0455 87.973 17.5587 89.8883C18.2929 92.6281 19.2669 94.9331 20.4807 96.8031C21.714 98.6394 23.1375 100.068 24.7513 101.09C26.365 102.112 28.1654 102.713 30.1524 102.893C32.1394 103.073 34.2634 102.861 36.5245 102.255C39.3441 101.499 41.8716 100.451 44.107 99.1111C46.3618 97.7372 48.4398 96.1825 50.3412 94.4471C52.2426 92.7117 54.0249 90.8513 55.6883 88.8661C57.3782 86.8737 59.0549 84.8849 60.7182 82.8996C62.401 80.8807 65.4377 77.4679 65.9106 77.0607C66.3835 76.6535 66.3536 76.5706 66.3536 76.5706L67.558 79.6421Z" fill="black"/>
<path d="M86.2678 13.7015C90.7367 12.5041 94.8109 12.0682 98.4905 12.3937C102.189 12.6855 105.427 13.5429 108.203 14.9658C110.972 16.3621 113.265 18.214 115.08 20.5215C116.923 22.8219 118.218 25.3686 118.966 28.1617C119.665 30.7685 119.851 33.4842 119.524 36.3087C119.198 39.1332 118.299 41.8971 116.828 44.6006C115.384 47.297 113.316 49.8468 110.624 52.2502C107.959 54.6464 104.624 56.7232 100.618 58.4807C101.059 60.4439 101.47 62.2439 101.852 63.8808C102.01 64.5796 102.169 65.2783 102.328 65.977C102.486 66.6758 102.631 67.3213 102.761 67.9137C102.911 68.4723 103.029 68.9679 103.117 69.4007C103.231 69.8263 103.309 70.1189 103.352 70.2785C103.798 72.1548 104.092 74.1572 104.235 76.2858C104.397 78.3806 104.362 80.4854 104.13 82.6002C103.925 84.7079 103.519 86.7555 102.911 88.743C102.337 90.75 101.516 92.5808 100.448 94.2354C99.4144 95.9095 98.1327 97.3506 96.6033 98.5587C95.0809 99.7934 93.2956 100.685 91.2474 101.234C89.0662 101.818 86.9578 101.77 84.9223 101.09C82.9205 100.429 81.0113 99.3153 79.1947 97.7493C77.4047 96.1762 75.7224 94.2606 74.148 92.0025C72.6002 89.7372 71.1835 87.3228 69.8979 84.7593C68.6051 82.1691 67.4551 79.5264 66.4478 76.8312C65.4672 74.1289 64.649 71.5542 63.9932 69.1069C62.8671 64.904 62.1658 60.7441 61.8895 56.6271C61.6131 52.5102 61.737 48.5568 62.2611 44.767C62.7781 40.9507 63.6829 37.3583 64.9756 33.9898C66.2684 30.6213 67.9207 27.5841 69.9326 24.8783C71.9712 22.1652 74.3473 19.8607 77.0609 17.9647C79.794 16.0349 82.863 14.6139 86.2678 13.7015ZM74.4087 65.2042C74.7009 66.2948 75.0965 67.7712 75.5954 69.6332C76.1138 71.4615 76.721 73.4086 77.4171 75.4744C78.1132 77.5402 78.8962 79.6112 79.7662 81.6874C80.6361 83.7636 81.5856 85.6047 82.6146 87.2107C83.6631 88.7829 84.7627 90.0136 85.9132 90.9027C87.0833 91.7582 88.32 92.0112 89.6234 91.662C90.9801 91.2985 92.0124 90.5229 92.7206 89.3353C93.4216 88.1211 93.8918 86.6836 94.131 85.023C94.3632 83.3357 94.4124 81.4978 94.2788 79.5094C94.138 77.4944 93.9041 75.5043 93.5771 73.5392C93.2501 71.574 92.8816 69.7198 92.4715 67.9765C92.0543 66.2066 91.6818 64.7099 91.3539 63.4863L90.8514 61.6109C88.4083 61.3247 86.4593 61.0201 85.0043 60.6973C83.5759 60.3672 82.4605 59.9819 81.6582 59.5411C80.8558 59.1004 80.2724 58.5724 79.908 57.9573C79.5631 57.3085 79.2695 56.5318 79.0272 55.6274C78.8989 55.1486 78.7874 54.6795 78.6929 54.2202C78.5912 53.7343 78.5472 53.3041 78.5609 52.9298C78.5941 52.5218 78.6886 52.1828 78.8444 51.913C79.0197 51.6095 79.3068 51.4042 79.7058 51.2973C79.9718 51.226 80.2255 51.2151 80.4668 51.2645C80.7347 51.3067 81.0665 51.3746 81.4622 51.4682C82.4683 51.7118 83.3733 51.8969 84.177 52.0237C84.9736 52.1239 85.6496 52.1993 86.2049 52.2501C86.8471 52.3061 87.4219 52.3232 87.9292 52.3013C87.8366 51.9555 87.6548 51.2771 87.384 50.2663C87.1326 49.2218 86.8988 48.03 86.6825 46.6909C86.4857 45.3181 86.3678 43.8672 86.3287 42.3381C86.2897 40.809 86.4422 39.3569 86.7865 37.9817C87.1308 36.6064 87.7316 35.3906 88.5889 34.3341C89.4391 33.2509 90.6489 32.4991 92.2183 32.0786C92.6971 31.9503 93.2035 31.8716 93.7374 31.8426C94.2642 31.787 94.7628 31.8387 95.233 31.9978C95.7228 32.1232 96.1577 32.363 96.5377 32.7174C96.9444 33.0646 97.2368 33.5707 97.415 34.2357C97.4649 34.4219 97.4872 34.5585 97.482 34.6454C97.4963 34.6986 97.5177 34.7784 97.5462 34.8848L97.8599 45.7915L98.3454 49.0398C100.845 47.9423 102.922 46.7016 104.575 45.3178C106.229 43.9339 107.507 42.4795 108.41 40.9546C109.339 39.4226 109.904 37.86 110.105 36.2667C110.332 34.6664 110.242 33.1081 109.836 31.5918C109.436 30.1022 108.738 28.6644 107.739 27.2784C106.76 25.8586 105.394 24.6992 103.642 23.8002C101.89 22.9011 99.7202 22.3564 97.1318 22.1662C94.5434 21.9759 91.4537 22.3619 87.8626 23.3241C85.176 24.044 82.881 25.2149 80.9777 26.8368C79.0673 28.432 77.4961 30.3356 76.2641 32.5474C75.0321 34.7592 74.1046 37.203 73.4816 39.8788C72.8586 42.5547 72.4912 45.3331 72.3793 48.2141C72.2869 51.0614 72.419 53.9483 72.7755 56.8749C73.1515 59.7677 73.6959 62.5442 74.4087 65.2042Z" fill="black"/>
<path d="M67.558 79.6421C68.4154 81.6265 68.9985 82.8996 70.012 84.9857C69.0307 86.218 68.9914 86.2709 68.0334 87.6965C67.0754 89.1221 66.0821 90.6285 65.0533 92.2156C64.044 93.769 62.915 95.3545 61.6664 96.972C60.4371 98.5558 59.0474 100.126 57.497 101.681C55.9538 103.264 54.1719 104.753 52.1513 106.15C50.1644 107.566 47.8918 108.874 45.3335 110.073C42.8017 111.264 39.9132 112.295 36.6679 113.164C33.0769 114.126 29.6356 114.265 26.3441 113.578C23.0864 112.912 20.1055 111.629 17.4015 109.731C14.6904 107.806 12.3415 105.37 10.3547 102.424C8.3874 99.4448 6.92263 96.1594 5.9604 92.5684C5.30467 90.1211 4.8686 87.4297 4.65222 84.4941C4.4287 81.5319 4.4206 78.4692 4.62792 75.306C4.8547 72.1091 5.29785 68.8685 5.95737 65.5842C6.61689 62.2998 7.49469 59.0853 8.59077 55.9406C9.71344 52.7887 11.0625 49.79 12.6379 46.9445C14.2061 44.0724 16.0027 41.467 18.0275 39.1283C20.0452 36.763 22.2956 34.7345 24.7789 33.0427C27.2622 31.351 29.9801 30.1095 32.9328 29.3184C34.848 28.8052 36.8825 28.6307 39.0363 28.7948C41.1829 28.9324 43.2298 29.4958 45.177 30.4851C47.1242 31.4744 48.8785 32.9145 50.4401 34.8055C52.0283 36.6893 53.2143 39.0942 53.9984 42.0202C54.5258 43.9887 54.7412 46.0692 54.6445 48.2619C54.5672 50.4209 54.2328 52.5775 53.6411 54.7318C53.0423 56.8595 52.2154 58.9342 51.1606 60.956C50.1323 62.9706 48.9274 64.8045 47.5457 66.4577C46.1569 68.0843 44.6374 69.4893 42.9873 70.6727C41.3372 71.8561 39.5944 72.6937 37.7589 73.1855C35.3383 73.8342 33.4439 73.9996 32.0758 73.682C30.7006 73.3377 29.8491 72.5537 29.5212 71.3301C29.4642 71.1173 29.3832 70.8682 29.2782 70.5827C29.1998 70.2901 29.1178 69.9842 29.0323 69.665C28.904 69.1862 28.7987 68.6869 28.7165 68.1673C28.6272 67.621 28.6053 67.1137 28.6508 66.6453C28.6964 66.1769 28.8298 65.7705 29.0512 65.4261C29.2991 65.0746 29.6891 64.8276 30.2211 64.685C30.5403 64.5995 30.8338 64.5778 31.1018 64.6201C31.3625 64.6357 31.6535 64.6576 31.9746 64.6856C32.2957 64.7136 32.67 64.7273 33.0976 64.7268C33.5445 64.6926 34.0873 64.5899 34.7257 64.4188C36.4281 63.9627 38.044 63.1305 39.5735 61.9224C41.1296 60.7072 42.4175 59.236 43.4372 57.5087C44.4835 55.7743 45.1961 53.8585 45.575 51.7612C45.9733 49.6303 45.8696 47.4343 45.2638 45.1732C44.943 43.9762 44.4805 42.8884 43.8762 41.91C43.2647 40.9049 42.493 40.0995 41.561 39.494C40.6218 38.8618 39.5161 38.4595 38.244 38.2872C36.9914 38.0812 35.5537 38.1955 33.9311 38.6303C32.0159 39.1435 30.2546 40.0716 28.6472 41.4146C27.0594 42.7239 25.6199 44.3213 24.329 46.2068C23.0381 48.0922 21.8982 50.2223 20.9094 52.597C19.9472 54.9646 19.1306 57.45 18.4597 60.0531C17.7816 62.6297 17.2517 65.2806 16.87 68.0058C16.5078 70.6973 16.2919 73.3496 16.2223 75.9627C16.1527 78.5758 16.2248 81.0796 16.4388 83.4742C16.6722 85.835 17.0455 87.973 17.5587 89.8883C18.2929 92.6281 19.2669 94.9331 20.4807 96.8031C21.714 98.6394 23.1375 100.068 24.7513 101.09C26.365 102.112 28.1654 102.713 30.1524 102.893C32.1394 103.073 34.2634 102.861 36.5245 102.255C39.3441 101.499 41.8716 100.451 44.107 99.1111C46.3618 97.7372 48.4398 96.1825 50.3412 94.4471C52.2426 92.7117 54.0249 90.8513 55.6883 88.8661C57.3782 86.8737 59.0549 84.8849 60.7182 82.8996C62.401 80.8807 65.4377 77.4679 65.9106 77.0607C66.3835 76.6535 66.3536 76.5706 66.3536 76.5706L67.558 79.6421Z" stroke="white" stroke-width="2" mask="url(#path-2-outside-1_21_17)"/>
<path d="M86.2678 13.7015C90.7367 12.5041 94.8109 12.0682 98.4905 12.3937C102.189 12.6855 105.427 13.5429 108.203 14.9658C110.972 16.3621 113.265 18.214 115.08 20.5215C116.923 22.8219 118.218 25.3686 118.966 28.1617C119.665 30.7685 119.851 33.4842 119.524 36.3087C119.198 39.1332 118.299 41.8971 116.828 44.6006C115.384 47.297 113.316 49.8468 110.624 52.2502C107.959 54.6464 104.624 56.7232 100.618 58.4807C101.059 60.4439 101.47 62.2439 101.852 63.8808C102.01 64.5796 102.169 65.2783 102.328 65.977C102.486 66.6758 102.631 67.3213 102.761 67.9137C102.911 68.4723 103.029 68.9679 103.117 69.4007C103.231 69.8263 103.309 70.1189 103.352 70.2785C103.798 72.1548 104.092 74.1572 104.235 76.2858C104.397 78.3806 104.362 80.4854 104.13 82.6002C103.925 84.7079 103.519 86.7555 102.911 88.743C102.337 90.75 101.516 92.5808 100.448 94.2354C99.4144 95.9095 98.1327 97.3506 96.6033 98.5587C95.0809 99.7934 93.2956 100.685 91.2474 101.234C89.0662 101.818 86.9578 101.77 84.9223 101.09C82.9205 100.429 81.0113 99.3153 79.1947 97.7493C77.4047 96.1762 75.7224 94.2606 74.148 92.0025C72.6002 89.7372 71.1835 87.3228 69.8979 84.7593C68.6051 82.1691 67.4551 79.5264 66.4478 76.8312C65.4672 74.1289 64.649 71.5542 63.9932 69.1069C62.8671 64.904 62.1658 60.7441 61.8895 56.6271C61.6131 52.5102 61.737 48.5568 62.2611 44.767C62.7781 40.9507 63.6829 37.3583 64.9756 33.9898C66.2684 30.6213 67.9207 27.5841 69.9326 24.8783C71.9712 22.1652 74.3473 19.8607 77.0609 17.9647C79.794 16.0349 82.863 14.6139 86.2678 13.7015ZM74.4087 65.2042C74.7009 66.2948 75.0965 67.7712 75.5954 69.6332C76.1138 71.4615 76.721 73.4086 77.4171 75.4744C78.1132 77.5402 78.8962 79.6112 79.7662 81.6874C80.6361 83.7636 81.5856 85.6047 82.6146 87.2107C83.6631 88.7829 84.7627 90.0136 85.9132 90.9027C87.0833 91.7582 88.32 92.0112 89.6234 91.662C90.9801 91.2985 92.0124 90.5229 92.7206 89.3353C93.4216 88.1211 93.8918 86.6836 94.131 85.023C94.3632 83.3357 94.4124 81.4978 94.2788 79.5094C94.138 77.4944 93.9041 75.5043 93.5771 73.5392C93.2501 71.574 92.8816 69.7198 92.4715 67.9765C92.0543 66.2066 91.6818 64.7099 91.3539 63.4863L90.8514 61.6109C88.4083 61.3247 86.4593 61.0201 85.0043 60.6973C83.5759 60.3672 82.4605 59.9819 81.6582 59.5411C80.8558 59.1004 80.2724 58.5724 79.908 57.9573C79.5631 57.3085 79.2695 56.5318 79.0272 55.6274C78.8989 55.1486 78.7874 54.6795 78.6929 54.2202C78.5912 53.7343 78.5472 53.3041 78.5609 52.9298C78.5941 52.5218 78.6886 52.1828 78.8444 51.913C79.0197 51.6095 79.3068 51.4042 79.7058 51.2973C79.9718 51.226 80.2255 51.2151 80.4668 51.2645C80.7347 51.3067 81.0665 51.3746 81.4622 51.4682C82.4683 51.7118 83.3733 51.8969 84.177 52.0237C84.9736 52.1239 85.6496 52.1993 86.2049 52.2501C86.8471 52.3061 87.4219 52.3232 87.9292 52.3013C87.8366 51.9555 87.6548 51.2771 87.384 50.2663C87.1326 49.2218 86.8988 48.03 86.6825 46.6909C86.4857 45.3181 86.3678 43.8672 86.3287 42.3381C86.2897 40.809 86.4422 39.3569 86.7865 37.9817C87.1308 36.6064 87.7316 35.3906 88.5889 34.3341C89.4391 33.2509 90.6489 32.4991 92.2183 32.0786C92.6971 31.9503 93.2035 31.8716 93.7374 31.8426C94.2642 31.787 94.7628 31.8387 95.233 31.9978C95.7228 32.1232 96.1577 32.363 96.5377 32.7174C96.9444 33.0646 97.2368 33.5707 97.415 34.2357C97.4649 34.4219 97.4872 34.5585 97.482 34.6454C97.4963 34.6986 97.5177 34.7784 97.5462 34.8848L97.8599 45.7915L98.3454 49.0398C100.845 47.9423 102.922 46.7016 104.575 45.3178C106.229 43.9339 107.507 42.4795 108.41 40.9546C109.339 39.4226 109.904 37.86 110.105 36.2667C110.332 34.6664 110.242 33.1081 109.836 31.5918C109.436 30.1022 108.738 28.6644 107.739 27.2784C106.76 25.8586 105.394 24.6992 103.642 23.8002C101.89 22.9011 99.7202 22.3564 97.1318 22.1662C94.5434 21.9759 91.4537 22.3619 87.8626 23.3241C85.176 24.044 82.881 25.2149 80.9777 26.8368C79.0673 28.432 77.4961 30.3356 76.2641 32.5474C75.0321 34.7592 74.1046 37.203 73.4816 39.8788C72.8586 42.5547 72.4912 45.3331 72.3793 48.2141C72.2869 51.0614 72.419 53.9483 72.7755 56.8749C73.1515 59.7677 73.6959 62.5442 74.4087 65.2042Z" stroke="white" stroke-width="2" mask="url(#path-2-outside-1_21_17)"/>
</g>
</g>
<defs>
<filter id="filter0_i_21_17" x="8" y="4" width="112" height="116" filterUnits="userSpaceOnUse" color-interpolation-filters="sRGB">
<feFlood flood-opacity="0" result="BackgroundImageFix"/>
<feBlend mode="normal" in="SourceGraphic" in2="BackgroundImageFix" result="shape"/>
<feColorMatrix in="SourceAlpha" type="matrix" values="0 0 0 0 0 0 0 0 0 0 0 0 0 0 0 0 0 0 127 0" result="hardAlpha"/>
<feOffset dy="-8"/>
<feGaussianBlur stdDeviation="2"/>
<feComposite in2="hardAlpha" operator="arithmetic" k2="-1" k3="1"/>
<feColorMatrix type="matrix" values="0 0 0 0 0 0 0 0 0 0 0 0 0 0 0 0 0 0 0.25 0"/>
<feBlend mode="normal" in2="shape" result="effect1_innerShadow_21_17"/>
</filter>
<filter id="filter1_d_21_17" x="-0.521721" y="11.2893" width="125.202" height="111.718" filterUnits="userSpaceOnUse" color-interpolation-filters="sRGB">
<feFlood flood-opacity="0" result="BackgroundImageFix"/>
<feColorMatrix in="SourceAlpha" type="matrix" values="0 0 0 0 0 0 0 0 0 0 0 0 0 0 0 0 0 0 127 0" result="hardAlpha"/>
<feOffset dy="4"/>
<feGaussianBlur stdDeviation="2"/>
<feComposite in2="hardAlpha" operator="out"/>
<feColorMatrix type="matrix" values="0 0 0 0 0 0 0 0 0 0 0 0 0 0 0 0 0 0 0.25 0"/>
<feBlend mode="normal" in2="BackgroundImageFix" result="effect1_dropShadow_21_17"/>
<feBlend mode="normal" in="SourceGraphic" in2="effect1_dropShadow_21_17" result="shape"/>
</filter>
<clipPath id="clip0_21_17">
<rect width="128" height="128" fill="white"/>
</clipPath>
</defs>

<style>
  path {
    fill: black;
    stroke: white;
  }

  circle {
    fill: #eee;
  }

  @media (prefers-color-scheme: 'dark') {
    path {
      fill: white;
      stroke: black;
    }

    circle {
      fill: #808080;
    }
  }
</style>
</svg>
